<svg style="height: auto;max-width: 100%;" width="1121" height="218" viewBox="0 0 1121 218" fill="none" xmlns="http://www.w3.org/2000/svg">
<path d="M180.371 186.773C179.85 186.253 179.395 185.667 179.004 185.016C178.613 184.234 178.288 183.258 178.027 182.086C176.204 179.872 174.772 177.333 173.73 174.469C172.689 171.604 171.973 168.674 171.582 165.68C171.191 162.555 171.126 159.43 171.387 156.305C171.647 153.18 172.103 150.25 172.754 147.516C173.145 146.214 173.47 144.846 173.73 143.414C174.382 140.94 175.033 138.531 175.684 136.188C176.335 133.714 177.311 131.695 178.613 130.133C178.092 128.701 178.158 127.138 178.809 125.445C179.46 123.753 180.111 122.19 180.762 120.758C181.022 120.367 181.217 120.042 181.348 119.781C181.478 119.391 181.608 119.065 181.738 118.805C183.301 114.247 184.798 109.885 186.23 105.719C187.793 101.422 189.29 97.3203 190.723 93.4141C193.327 86.2526 195.801 79.2214 198.145 72.3203C200.618 65.4193 202.832 58.0625 204.785 50.25C205.827 49.4688 206.738 48.9479 207.52 48.6875C207.78 48.5573 208.105 48.4271 208.496 48.2969C208.887 48.1667 209.342 48.1016 209.863 48.1016C212.598 49.5339 215.788 50.901 219.434 52.2031C223.21 53.375 226.4 53.9609 229.004 53.9609L232.324 56.8906C234.017 58.8438 235.449 60.9271 236.621 63.1406C237.923 65.224 238.314 67.9583 237.793 71.3438C237.012 72.5156 236.361 73.2318 235.84 73.4922C235.059 76.487 234.212 79.1562 233.301 81.5C232.389 83.7135 231.478 85.862 230.566 87.9453C229.525 90.2891 228.548 92.6328 227.637 94.9766C226.725 97.3203 225.944 100.185 225.293 103.57C224.512 104.482 223.991 105.263 223.73 105.914C223.6 106.565 223.405 107.216 223.145 107.867C222.884 108.648 222.559 109.495 222.168 110.406C221.777 111.188 221.191 111.904 220.41 112.555C219.889 116.591 219.108 119.911 218.066 122.516C217.025 124.99 215.983 127.464 214.941 129.938C213.118 134.495 211.426 139.052 209.863 143.609C208.301 148.036 207.389 153.115 207.129 158.844C208.691 158.453 210.124 158.258 211.426 158.258C213.118 158.258 214.746 158.518 216.309 159.039C220.996 156.695 226.074 155.263 231.543 154.742C237.142 154.221 242.676 153.896 248.145 153.766C252.702 153.766 256.934 153.57 260.84 153.18C262.142 154.091 262.988 154.612 263.379 154.742C263.77 154.742 264.421 154.742 265.332 154.742C265.723 154.742 266.113 154.742 266.504 154.742C266.895 154.742 267.415 154.807 268.066 154.938C269.889 156.76 271.647 158.062 273.34 158.844C275.033 159.495 276.855 160.146 278.809 160.797C280.501 161.448 282.129 162.164 283.691 162.945C285.384 163.596 287.012 164.508 288.574 165.68L290.332 175.641C291.374 177.073 291.829 178.049 291.699 178.57C291.699 179.612 291.439 180.523 290.918 181.305L291.309 183.844C288.835 184.365 287.207 184.951 286.426 185.602C285.645 186.122 284.798 186.839 283.887 187.75C282.454 187.88 281.087 187.945 279.785 187.945C277.181 187.945 274.512 188.336 271.777 189.117C267.871 187.685 263.574 186.969 258.887 186.969C257.064 186.969 255.176 187.034 253.223 187.164C251.4 187.294 249.577 187.49 247.754 187.75C245.801 188.01 243.848 188.271 241.895 188.531C239.941 188.661 237.988 188.727 236.035 188.727C234.473 188.987 233.366 189.182 232.715 189.312C232.064 189.443 231.413 189.638 230.762 189.898C226.335 191.331 221.517 192.763 216.309 194.195C211.23 195.628 206.087 196.344 200.879 196.344C193.197 196.344 187.012 194.391 182.324 190.484C181.803 189.312 181.413 188.531 181.152 188.141C180.892 187.75 180.632 187.294 180.371 186.773ZM319.926 183.062C320.447 186.188 320.238 188.635 319.301 190.406C318.467 192.177 317.217 193.479 315.551 194.312C313.988 195.25 312.165 195.771 310.082 195.875C307.999 195.979 306.02 195.875 304.145 195.562C303.103 194.104 302.165 192.281 301.332 190.094C300.499 187.906 299.717 185.667 298.988 183.375C298.259 180.979 297.582 178.635 296.957 176.344C296.436 174.052 295.967 172.021 295.551 170.25C296.072 169 296.384 167.594 296.488 166.031C296.697 164.365 296.801 162.698 296.801 161.031C296.905 159.365 296.957 157.698 296.957 156.031C297.061 154.26 297.217 152.594 297.426 151.031C298.155 146.656 299.197 142.49 300.551 138.531C302.009 134.573 303.155 130.458 303.988 126.188C304.197 125.25 304.092 124.365 303.676 123.531C303.363 122.698 303.311 121.917 303.52 121.188C303.624 120.771 303.936 120.51 304.457 120.406C304.978 120.198 305.29 119.833 305.395 119.312C305.707 118.167 305.759 117.229 305.551 116.5C305.447 115.771 305.655 114.885 306.176 113.844C306.697 113.01 307.322 111.812 308.051 110.25C308.884 108.583 309.197 106.865 308.988 105.094C309.926 104.469 310.811 103.74 311.645 102.906C312.478 102.073 313.311 101.344 314.145 100.719C315.082 99.9896 316.072 99.3646 317.113 98.8438C318.259 98.3229 319.613 98.0625 321.176 98.0625C322.009 99.1042 322.53 100.25 322.738 101.5C323.051 102.75 323.311 104 323.52 105.25C323.832 106.5 324.249 107.698 324.77 108.844C325.29 109.885 326.176 110.719 327.426 111.344C327.426 112.177 327.426 113.219 327.426 114.469C327.426 115.719 327.478 116.969 327.582 118.219C327.686 119.365 327.895 120.458 328.207 121.5C328.624 122.438 329.249 123.062 330.082 123.375C328.207 128.375 326.436 133.323 324.77 138.219C323.207 143.115 321.905 148.062 320.863 153.062C319.822 157.958 319.145 162.906 318.832 167.906C318.624 172.906 318.988 177.958 319.926 183.062ZM437.176 191.188C436.134 191.708 435.145 192.177 434.207 192.594C433.374 193.01 432.384 193.219 431.238 193.219C427.176 190.198 425.04 184.938 424.832 177.438C424.728 169.938 426.342 160.406 429.676 148.844C430.197 148.531 430.457 147.906 430.457 146.969L429.051 145.406C428.634 145.406 428.217 145.458 427.801 145.562C427.488 145.667 427.228 146.031 427.02 146.656C424.311 148.635 421.342 150.719 418.113 152.906C414.884 154.99 411.499 156.969 407.957 158.844C404.52 160.615 400.978 162.073 397.332 163.219C393.79 164.365 390.301 164.938 386.863 164.938C378.113 164.938 371.551 160.51 367.176 151.656L365.926 149.312L364.676 151.344C364.363 151.76 363.895 152.646 363.27 154C362.645 155.25 362.02 156.708 361.395 158.375C360.77 160.042 360.197 161.76 359.676 163.531C359.259 165.198 359.103 166.656 359.207 167.906C358.27 168.844 357.28 169.938 356.238 171.188C355.197 172.438 354.415 173.844 353.895 175.406C353.686 176.24 353.79 177.021 354.207 177.75C353.999 178.688 353.53 179.417 352.801 179.938C352.384 180.458 351.915 180.979 351.395 181.5C350.978 181.917 350.613 182.385 350.301 182.906C350.092 183.427 349.936 183.948 349.832 184.469C349.832 184.99 349.78 185.51 349.676 186.031C349.676 186.76 349.572 187.438 349.363 188.062C347.592 191.708 346.186 194.052 345.145 195.094C344.103 196.24 342.697 196.812 340.926 196.812C340.092 196.812 338.738 196.656 336.863 196.344C335.509 194.885 334.259 192.906 333.113 190.406C332.072 187.802 331.238 185.042 330.613 182.125C330.092 179.208 329.832 176.292 329.832 173.375C329.936 170.354 330.457 167.75 331.395 165.562C331.395 165.458 331.811 164.417 332.645 162.438C333.478 160.458 334.52 157.906 335.77 154.781C337.124 151.656 338.634 148.219 340.301 144.469C341.967 140.615 343.634 136.917 345.301 133.375C346.967 129.729 348.53 126.396 349.988 123.375C351.551 120.354 352.853 118.062 353.895 116.5C354.728 115.25 355.457 114.104 356.082 113.062C356.811 111.917 357.488 110.823 358.113 109.781C359.988 106.552 361.759 103.896 363.426 101.812C365.197 99.625 367.749 97.9062 371.082 96.6562C373.374 97.5938 375.04 98.6875 376.082 99.9375L376.395 101.656C376.811 102.698 377.436 103.219 378.27 103.219C379.415 103.531 380.353 103.844 381.082 104.156C381.915 104.365 382.801 104.573 383.738 104.781C384.467 105.615 385.145 106.604 385.77 107.75C386.603 109 387.384 110.25 388.113 111.5C388.947 112.646 389.572 113.844 389.988 115.094C390.509 116.24 390.77 117.438 390.77 118.688C390.874 119.938 390.665 121.24 390.145 122.594L390.301 124.156C390.822 125.094 390.926 126.396 390.613 128.062C390.509 128.792 390.457 129.573 390.457 130.406C390.457 131.135 390.561 131.969 390.77 132.906C392.645 134.365 394.311 135.094 395.77 135.094C397.436 135.094 398.947 134.729 400.301 134C401.759 133.167 403.113 132.333 404.363 131.5C405.197 130.875 406.03 130.354 406.863 129.938C407.697 129.417 408.53 129.104 409.363 129C411.238 127.229 412.905 125.667 414.363 124.312C415.926 122.958 417.54 121.604 419.207 120.25C422.332 117.75 425.353 115.042 428.27 112.125C431.186 109.208 433.53 105.562 435.301 101.188C436.342 100.562 437.436 100.25 438.582 100.25C439.728 100.25 440.926 100.51 442.176 101.031C443.426 101.552 444.624 102.073 445.77 102.594C446.082 102.802 446.342 102.958 446.551 103.062C446.863 103.167 447.124 103.271 447.332 103.375C447.332 104.417 447.749 105.302 448.582 106.031C448.999 106.344 449.259 106.552 449.363 106.656C449.467 106.76 449.624 106.865 449.832 106.969C451.395 107.802 452.384 108.635 452.801 109.469C453.53 111.865 454.832 113.688 456.707 114.938C456.499 115.979 456.499 116.969 456.707 117.906C457.02 118.74 457.384 119.625 457.801 120.562C457.905 120.875 458.009 121.188 458.113 121.5C458.217 121.812 458.374 122.177 458.582 122.594L455.613 122.281L456.082 125.25C456.29 126.708 456.134 128.323 455.613 130.094C455.197 131.865 454.676 133.271 454.051 134.312C454.155 137.021 454.207 139.156 454.207 140.719C454.311 142.177 454.259 143.583 454.051 144.938C453.842 146.188 453.53 147.385 453.113 148.531C452.801 149.677 452.332 150.927 451.707 152.281C452.124 158.948 451.342 165.042 449.363 170.562C447.488 175.979 445.509 181.083 443.426 185.875C443.217 186.396 442.957 186.917 442.645 187.438C442.436 187.958 442.228 188.479 442.02 189C441.082 189.312 440.249 189.677 439.52 190.094C438.79 190.406 438.009 190.771 437.176 191.188ZM537.551 106.031C537.655 106.76 537.655 107.333 537.551 107.75C537.551 108.062 537.499 108.375 537.395 108.688C537.395 109 537.395 109.365 537.395 109.781C537.395 110.094 537.499 110.615 537.707 111.344C535.52 114.885 532.967 117.333 530.051 118.688C527.238 119.938 524.165 120.875 520.832 121.5C517.499 122.021 514.061 122.594 510.52 123.219C507.082 123.844 503.645 125.198 500.207 127.281C498.853 126.76 497.603 126.76 496.457 127.281C495.415 127.802 493.853 127.958 491.77 127.75C491.145 128.375 490.363 128.844 489.426 129.156C488.488 129.365 487.551 129.625 486.613 129.938C487.03 130.875 487.186 131.865 487.082 132.906C487.082 133.844 487.238 134.625 487.551 135.25C491.197 135.562 495.207 135.51 499.582 135.094C504.061 134.677 508.436 134.417 512.707 134.312C512.811 134.833 512.759 135.198 512.551 135.406C512.342 135.51 512.29 135.771 512.395 136.188C513.124 136.708 513.853 137.385 514.582 138.219C515.311 138.948 516.04 139.677 516.77 140.406C517.499 141.135 518.228 141.76 518.957 142.281C519.79 142.698 520.728 142.854 521.77 142.75C522.186 143.583 522.447 144.521 522.551 145.562C522.759 146.5 522.655 147.49 522.238 148.531C520.572 149.677 518.905 150.875 517.238 152.125C515.572 153.271 513.801 154.312 511.926 155.25C510.155 156.188 508.228 156.969 506.145 157.594C504.165 158.115 501.926 158.323 499.426 158.219C498.905 158.219 498.488 158.219 498.176 158.219C497.967 158.219 497.655 158.062 497.238 157.75C496.405 158.271 495.207 158.427 493.645 158.219C492.186 158.01 491.04 158.167 490.207 158.688C489.061 158.167 487.655 157.958 485.988 158.062C484.426 158.062 483.02 157.854 481.77 157.438C480.103 159.625 478.592 161.969 477.238 164.469C475.884 166.969 474.686 169.625 473.645 172.438C477.186 172.958 480.103 173.167 482.395 173.062C484.79 172.958 487.03 172.802 489.113 172.594C491.197 172.281 493.332 172.021 495.52 171.812C497.707 171.5 500.467 171.396 503.801 171.5C505.884 170.354 508.332 169.625 511.145 169.312C514.061 168.896 516.717 168.271 519.113 167.438C519.947 167.75 520.676 168.323 521.301 169.156C521.926 169.885 522.499 170.615 523.02 171.344C523.645 171.969 524.27 172.542 524.895 173.062C525.52 173.583 526.301 173.792 527.238 173.688C527.655 174.104 527.915 174.625 528.02 175.25C528.228 175.771 528.384 176.292 528.488 176.812C528.592 177.333 528.749 177.802 528.957 178.219C529.27 178.531 529.738 178.635 530.363 178.531C528.801 181.969 526.978 184.625 524.895 186.5C522.915 188.271 520.624 189.625 518.02 190.562C515.415 191.5 512.499 192.229 509.27 192.75C506.145 193.271 502.655 193.896 498.801 194.625C497.863 194.833 497.082 194.781 496.457 194.469C495.832 194.26 495.103 194.156 494.27 194.156C491.874 194.677 489.009 195.146 485.676 195.562C482.342 195.979 478.957 196.135 475.52 196.031C472.082 195.927 468.801 195.458 465.676 194.625C462.551 193.896 459.999 192.542 458.02 190.562C457.186 189.833 456.613 189 456.301 188.062C456.092 187.021 455.415 186.24 454.27 185.719C454.165 184.365 453.957 182.854 453.645 181.188C453.332 179.521 453.02 177.802 452.707 176.031C452.395 174.156 452.134 172.333 451.926 170.562C451.822 168.792 451.926 167.177 452.238 165.719C452.551 164.156 453.176 162.75 454.113 161.5C455.155 160.25 455.52 158.896 455.207 157.438C455.728 157.333 456.04 157.073 456.145 156.656C456.249 156.135 456.665 155.927 457.395 156.031C458.02 154.156 458.697 152.385 459.426 150.719C460.155 149.052 460.884 147.438 461.613 145.875C462.447 144.312 463.228 142.75 463.957 141.188C464.79 139.521 465.572 137.698 466.301 135.719C464.842 134.365 463.749 132.906 463.02 131.344C462.395 129.677 461.926 128.062 461.613 126.5C461.301 124.833 461.04 123.167 460.832 121.5C460.624 119.729 460.259 117.958 459.738 116.188C460.78 114.625 462.03 113.375 463.488 112.438C465.051 111.396 466.717 110.562 468.488 109.938C470.259 109.312 472.186 108.792 474.27 108.375C476.353 107.958 478.54 107.49 480.832 106.969C484.999 105.615 488.697 104.573 491.926 103.844C495.259 103.115 498.488 102.542 501.613 102.125C504.842 101.604 508.176 101.135 511.613 100.719C515.051 100.302 518.957 99.6771 523.332 98.8438C524.27 99.7812 525.155 100.25 525.988 100.25C526.405 99.3125 526.874 99.0521 527.395 99.4688C528.02 99.7812 528.28 99.4688 528.176 98.5312C529.217 100.302 530.52 101.812 532.082 103.062C533.749 104.208 535.572 105.198 537.551 106.031ZM665.199 177.75C664.053 181.917 663.012 185.094 662.074 187.281C661.241 189.365 659.939 191.552 658.168 193.844C656.814 193.635 655.876 193.792 655.355 194.312C654.835 194.833 654.262 195.302 653.637 195.719C652.699 195.927 652.022 195.927 651.605 195.719C651.189 195.51 650.824 195.25 650.512 194.938C650.199 194.729 649.783 194.469 649.262 194.156C648.845 193.948 648.168 193.844 647.23 193.844C647.022 193.01 646.762 192.229 646.449 191.5C646.241 190.771 645.564 190.51 644.418 190.719C644.626 189.885 644.678 189.208 644.574 188.688C644.47 188.062 644.314 187.542 644.105 187.125C644.001 186.604 643.897 186.135 643.793 185.719C643.689 185.198 643.741 184.573 643.949 183.844C643.428 183.844 643.012 183.479 642.699 182.75C642.387 182.021 642.022 181.292 641.605 180.562C641.918 178.688 642.23 176.917 642.543 175.25C642.855 173.583 643.22 172.021 643.637 170.562C644.158 169.104 644.574 167.646 644.887 166.188C645.199 164.729 645.043 163.219 644.418 161.656C644.835 161.969 645.147 161.917 645.355 161.5C645.564 160.979 645.72 160.354 645.824 159.625C645.928 158.792 645.98 158.01 645.98 157.281C645.98 156.448 645.928 155.771 645.824 155.25C646.866 152.542 647.699 149.781 648.324 146.969C649.053 144.052 649.678 141.188 650.199 138.375C650.824 135.562 651.449 132.802 652.074 130.094C652.699 127.385 653.533 124.885 654.574 122.594C655.72 122.385 656.97 122.542 658.324 123.062C659.783 123.479 660.668 124.052 660.98 124.781C663.689 122.698 666.085 120.198 668.168 117.281C670.251 114.26 672.387 111.344 674.574 108.531C676.762 105.719 679.158 103.219 681.762 101.031C684.47 98.8438 687.855 97.5417 691.918 97.125C694.001 98.6875 696.293 100.302 698.793 101.969C701.397 103.531 703.533 105.615 705.199 108.219C706.033 108.635 706.71 109.104 707.23 109.625C707.855 110.042 708.585 110.51 709.418 111.031V112.906C710.668 114.052 711.658 115.406 712.387 116.969C713.22 118.427 713.949 120.042 714.574 121.812C715.199 123.479 715.824 125.198 716.449 126.969C717.074 128.635 717.803 130.25 718.637 131.812C718.428 132.333 718.324 132.802 718.324 133.219C718.324 133.531 718.376 133.896 718.48 134.312C718.689 134.729 718.845 135.146 718.949 135.562C719.053 135.979 719.053 136.552 718.949 137.281C718.637 141.865 717.126 145.562 714.418 148.375C711.814 151.188 708.637 153.531 704.887 155.406C701.137 157.177 697.126 158.688 692.855 159.938C688.585 161.188 684.73 162.542 681.293 164C681.293 164.417 681.449 164.625 681.762 164.625C682.178 164.625 682.335 164.885 682.23 165.406C684.73 166.969 686.71 168.219 688.168 169.156C689.626 170.094 690.98 170.875 692.23 171.5C693.585 172.125 694.991 172.698 696.449 173.219C698.012 173.635 700.147 174.156 702.855 174.781C705.564 175.406 707.647 175.927 709.105 176.344C710.668 176.656 712.074 176.969 713.324 177.281C714.574 177.49 715.824 177.698 717.074 177.906C718.428 178.01 720.303 178.167 722.699 178.375C723.637 179.312 724.418 180.458 725.043 181.812C725.772 183.062 726.241 184.365 726.449 185.719C726.658 186.969 726.71 188.219 726.605 189.469C726.501 190.615 726.137 191.552 725.512 192.281C725.616 192.594 725.824 192.75 726.137 192.75C726.553 192.646 726.97 192.646 727.387 192.75C726.762 193.167 726.241 193.688 725.824 194.312C725.408 194.938 724.991 195.562 724.574 196.188C724.158 196.812 723.689 197.333 723.168 197.75C722.647 198.271 721.918 198.583 720.98 198.688C717.751 199.938 713.689 199.99 708.793 198.844C703.897 197.802 697.699 195.823 690.199 192.906C686.449 191.448 683.376 190.198 680.98 189.156C678.689 188.01 676.658 186.917 674.887 185.875C673.22 184.729 671.658 183.531 670.199 182.281C668.845 181.031 667.178 179.521 665.199 177.75ZM687.543 124.156C686.397 125.823 685.095 127.333 683.637 128.688C682.283 130.042 680.928 131.448 679.574 132.906C678.324 134.26 677.178 135.823 676.137 137.594C675.095 139.26 674.366 141.24 673.949 143.531C677.595 143.115 681.397 142.125 685.355 140.562C689.314 138.896 693.064 137.333 696.605 135.875C696.189 132.646 695.043 130.042 693.168 128.062C691.397 126.083 689.522 124.781 687.543 124.156ZM750.73 183.062C751.251 186.188 751.043 188.635 750.105 190.406C749.272 192.177 748.022 193.479 746.355 194.312C744.793 195.25 742.97 195.771 740.887 195.875C738.803 195.979 736.824 195.875 734.949 195.562C733.908 194.104 732.97 192.281 732.137 190.094C731.303 187.906 730.522 185.667 729.793 183.375C729.064 180.979 728.387 178.635 727.762 176.344C727.241 174.052 726.772 172.021 726.355 170.25C726.876 169 727.189 167.594 727.293 166.031C727.501 164.365 727.605 162.698 727.605 161.031C727.71 159.365 727.762 157.698 727.762 156.031C727.866 154.26 728.022 152.594 728.23 151.031C728.96 146.656 730.001 142.49 731.355 138.531C732.814 134.573 733.96 130.458 734.793 126.188C735.001 125.25 734.897 124.365 734.48 123.531C734.168 122.698 734.116 121.917 734.324 121.188C734.428 120.771 734.741 120.51 735.262 120.406C735.783 120.198 736.095 119.833 736.199 119.312C736.512 118.167 736.564 117.229 736.355 116.5C736.251 115.771 736.46 114.885 736.98 113.844C737.501 113.01 738.126 111.812 738.855 110.25C739.689 108.583 740.001 106.865 739.793 105.094C740.73 104.469 741.616 103.74 742.449 102.906C743.283 102.073 744.116 101.344 744.949 100.719C745.887 99.9896 746.876 99.3646 747.918 98.8438C749.064 98.3229 750.418 98.0625 751.98 98.0625C752.814 99.1042 753.335 100.25 753.543 101.5C753.855 102.75 754.116 104 754.324 105.25C754.637 106.5 755.053 107.698 755.574 108.844C756.095 109.885 756.98 110.719 758.23 111.344C758.23 112.177 758.23 113.219 758.23 114.469C758.23 115.719 758.283 116.969 758.387 118.219C758.491 119.365 758.699 120.458 759.012 121.5C759.428 122.438 760.053 123.062 760.887 123.375C759.012 128.375 757.241 133.323 755.574 138.219C754.012 143.115 752.71 148.062 751.668 153.062C750.626 157.958 749.949 162.906 749.637 167.906C749.428 172.906 749.793 177.958 750.73 183.062ZM818.762 97.125C823.137 97.6458 827.043 98.5312 830.48 99.7812C833.918 101.031 836.835 102.698 839.23 104.781C840.897 107.385 842.46 110.198 843.918 113.219C845.48 116.24 846.626 119.417 847.355 122.75C848.189 125.979 848.553 129.312 848.449 132.75C848.449 136.188 847.72 139.677 846.262 143.219C843.241 146.969 839.543 150.042 835.168 152.438C830.897 154.729 826.262 156.604 821.262 158.062C816.262 159.521 811.053 160.771 805.637 161.812C800.324 162.854 795.116 163.896 790.012 164.938C790.116 167.333 790.116 169.885 790.012 172.594C790.012 175.198 789.751 177.854 789.23 180.562C788.814 183.167 788.137 185.719 787.199 188.219C786.262 190.719 785.012 193.01 783.449 195.094C781.678 195.094 779.855 195.302 777.98 195.719C776.105 196.24 774.439 196.656 772.98 196.969C772.251 196.552 771.574 196.135 770.949 195.719C770.428 195.406 769.647 195.198 768.605 195.094C768.814 194.052 768.553 193.01 767.824 191.969C767.095 190.823 766.366 189.677 765.637 188.531C764.908 187.385 764.387 186.292 764.074 185.25C763.866 184.208 764.387 183.219 765.637 182.281C764.908 181.552 764.543 180.615 764.543 179.469C765.272 178.219 765.897 176.5 766.418 174.312C767.043 172.125 767.512 169.99 767.824 167.906C768.241 165.719 768.345 163.74 768.137 161.969C767.928 160.198 766.887 158.896 765.012 158.062C765.116 157.854 765.324 157.75 765.637 157.75C765.949 157.75 766.262 157.698 766.574 157.594C765.741 156.969 765.22 156.083 765.012 154.938C764.908 153.792 764.543 152.802 763.918 151.969C764.126 151.448 764.283 150.979 764.387 150.562C764.491 150.146 764.855 149.99 765.48 150.094C765.168 148.219 765.168 146.448 765.48 144.781C765.897 143.115 766.47 141.552 767.199 140.094C767.928 138.531 768.814 137.021 769.855 135.562C770.897 134.104 771.887 132.646 772.824 131.188C773.553 131.083 773.97 131.188 774.074 131.5C774.283 131.812 774.647 131.76 775.168 131.344C776.522 130.302 777.46 129.208 777.98 128.062C778.501 126.917 778.762 125.615 778.762 124.156C779.491 121.969 780.376 119.781 781.418 117.594C782.46 115.302 783.605 113.219 784.855 111.344C786.105 109.469 787.46 107.802 788.918 106.344C790.48 104.885 792.095 103.792 793.762 103.062C795.012 102.021 796.574 101.083 798.449 100.25C800.324 99.3125 802.355 98.6354 804.543 98.2188C806.73 97.6979 808.918 97.4375 811.105 97.4375C813.397 97.3333 815.48 97.5417 817.355 98.0625C817.876 98.2708 818.137 98.1667 818.137 97.75C818.241 97.3333 818.449 97.125 818.762 97.125ZM812.355 134.469C814.96 133.323 817.72 132.438 820.637 131.812C823.658 131.083 826.158 129.781 828.137 127.906C826.887 126.76 825.064 125.771 822.668 124.938C820.272 124 817.668 123.427 814.855 123.219C812.043 123.01 809.178 123.271 806.262 124C803.449 124.625 801.001 125.875 798.918 127.75C798.293 129.625 797.772 131.135 797.355 132.281C796.939 133.323 796.366 134.625 795.637 136.188C795.845 136.708 796.158 137.125 796.574 137.438C797.095 137.646 797.46 138.01 797.668 138.531C800.064 137.281 802.46 136.604 804.855 136.5C807.355 136.292 809.855 135.615 812.355 134.469Z" fill="#C7F900"></path>
<path d="M543.943 64.3047C543.781 63.0026 543.455 61.8633 542.967 60.8867C542.641 59.7474 542.234 58.5267 541.746 57.2246C540.932 55.2715 540.2 53.1556 539.549 50.877C538.898 48.5983 538.572 45.9128 538.572 42.8203C538.898 41.1927 539.305 40.0534 539.793 39.4023C540.281 38.5885 540.77 37.9375 541.258 37.4492L542.234 33.0547H545.896C547.199 33.2174 548.501 33.2988 549.803 33.2988C551.268 33.2988 552.651 33.2988 553.953 33.2988C560.138 33.2988 566.486 33.0547 572.996 32.5664C579.507 32.0781 586.18 31.5085 593.016 30.8574C600.503 29.8809 608.559 29.1484 617.186 28.6602C617.999 26.8698 618.488 25.7305 618.65 25.2422C618.976 24.7539 619.301 24.1842 619.627 23.5332L622.312 22.0684C626.056 21.9056 628.66 22.3939 630.125 23.5332C631.59 24.5098 632.729 25.4863 633.543 26.4629C637.775 26.1374 642.088 25.7305 646.482 25.2422C650.877 24.5911 655.434 23.9401 660.154 23.2891C666.665 22.4753 673.257 21.6615 679.93 20.8477C686.603 20.0339 693.113 19.627 699.461 19.627C702.228 19.627 704.832 19.7083 707.273 19.8711C709.715 20.0339 712.075 20.278 714.354 20.6035L717.283 22.8008C717.934 23.9401 718.748 24.998 719.725 25.9746C720.701 26.9512 721.84 27.9277 723.143 28.9043C725.584 30.8574 727.944 33.2988 730.223 36.2285C732.664 39.1582 733.559 43.4714 732.908 49.168L731.688 51.6094C731.036 52.2604 730.223 52.9115 729.246 53.5625L726.805 56.7363H724.119C722.492 56.7363 721.271 56.8991 720.457 57.2246C719.643 57.3874 718.667 57.7129 717.527 58.2012C716.876 58.5267 716.144 58.8522 715.33 59.1777C714.516 59.3405 713.621 59.5846 712.645 59.9102C710.854 59.7474 709.471 59.666 708.494 59.666C707.518 59.666 706.378 59.666 705.076 59.666C700.193 59.666 694.904 59.9915 689.207 60.6426C683.51 61.2936 677.977 62.026 672.605 62.8398C668.699 63.3281 664.956 63.8164 661.375 64.3047C657.794 64.6302 654.539 64.9557 651.609 65.2812C649.982 69.513 648.517 73.2565 647.215 76.5117C645.913 79.7669 644.529 83.0221 643.064 86.2773C641.6 89.5326 640.216 92.8691 638.914 96.2871C637.612 99.5423 636.391 103.204 635.252 107.273C633.299 110.203 631.671 113.051 630.369 115.818C629.067 118.423 628.009 121.434 627.195 124.852C624.754 127.618 622.964 130.63 621.824 133.885C620.848 137.14 619.952 139.907 619.139 142.186L618.162 145.848C617.023 146.987 616.29 147.882 615.965 148.533C615.802 149.184 615.395 149.917 614.744 150.73C614.256 152.846 613.605 154.881 612.791 156.834C612.465 157.648 612.14 158.543 611.814 159.52C611.489 160.333 611.408 160.984 611.57 161.473C611.245 163.263 610.757 164.646 610.105 165.623C610.105 166.6 610.024 167.576 609.861 168.553C609.699 169.529 609.536 170.506 609.373 171.482C609.048 172.622 608.803 173.68 608.641 174.656C608.478 175.47 608.559 176.284 608.885 177.098C609.373 177.749 609.861 178.4 610.35 179.051C610.838 179.702 611.245 180.516 611.57 181.492C611.896 181.818 612.303 182.062 612.791 182.225C613.279 182.387 613.686 182.632 614.012 182.957C615.314 184.096 616.535 184.747 617.674 184.91L620.115 187.84C621.092 193.699 620.197 198.257 617.43 201.512C614.5 205.255 609.617 207.127 602.781 207.127L599.363 206.883C598.224 205.743 597.573 205.011 597.41 204.686C595.945 204.035 594.725 203.465 593.748 202.977C592.771 202.651 591.876 201.919 591.062 200.779C590.737 200.454 590.33 200.291 589.842 200.291C589.354 200.128 588.947 199.884 588.621 199.559C586.993 199.07 585.691 198.501 584.715 197.85L582.029 196.385C582.192 194.757 582.273 193.618 582.273 192.967C580.971 191.176 579.913 189.223 579.1 187.107C578.449 184.992 577.879 182.794 577.391 180.516C576.902 178.725 576.414 177.098 575.926 175.633C575.6 174.168 575.031 172.866 574.217 171.727C573.891 160.333 574.949 150.812 577.391 143.162C579.832 135.35 582.518 127.781 585.447 120.457C587.075 116.551 588.621 112.563 590.086 108.494C591.551 104.425 592.853 100.275 593.992 96.043L596.678 93.3574C597.817 92.3809 598.549 91.8112 598.875 91.6484C598.875 89.5326 599.282 87.498 600.096 85.5449C600.91 83.429 601.805 81.3132 602.781 79.1973C603.432 77.8952 604.002 76.5931 604.49 75.291C605.141 73.9889 605.548 72.8496 605.711 71.873C604.572 71.873 603.514 71.9544 602.537 72.1172C601.723 72.1172 600.828 72.1986 599.852 72.3613C597.736 72.8496 595.701 73.0938 593.748 73.0938C592.283 73.0938 591.225 73.0124 590.574 72.8496C589.272 73.5007 588.051 73.9076 586.912 74.0703C585.773 74.0703 584.633 74.0703 583.494 74.0703H580.564H577.635C575.682 74.0703 574.135 74.3145 572.996 74.8027C570.717 74.8027 569.253 74.8027 568.602 74.8027C567.951 74.8027 567.218 74.8027 566.404 74.8027H563.475H560.545C559.243 74.8027 557.778 74.7214 556.15 74.5586C554.523 74.2331 552.814 73.582 551.023 72.6055L549.314 70.6523C548.338 68.862 547.443 67.8854 546.629 67.7227L543.943 66.9902V64.3047Z" fill="#C7F900"></path>
</svg>